<?xml version="1.0" standalone="no"?><!DOCTYPE svg PUBLIC "-//W3C//DTD SVG 1.1//EN" "http://www.w3.org/Graphics/SVG/1.1/DTD/svg11.dtd"><svg t="1668480562620" class="icon" viewBox="0 0 1024 1024" version="1.1" xmlns="http://www.w3.org/2000/svg" p-id="1111" xmlns:xlink="http://www.w3.org/1999/xlink" width="200" height="200"><path d="M0 0h1024v1024H0z" fill="#FFFFFF" p-id="1112"></path><path d="M702.138182 189.44V320.698182h248.552727v560.174545H73.076364V320.930909h249.949091V189.672727h379.112727M740.538182 116.363636H284.858182c-19.316364 0-34.909091 15.592727-34.909091 34.909091v96.349091H34.909091c-19.316364 0-34.909091 15.592727-34.909091 34.909091V919.272727c0 19.316364 15.592727 34.909091 34.909091 34.909091h954.181818c19.316364 0 34.909091-15.592727 34.909091-34.909091V282.298182c0-19.083636-15.592727-34.676364-34.676364-34.676364h-214.109091V151.272727c0.232727-19.316364-15.592727-34.909091-34.676363-34.909091z" p-id="1113"></path><path d="M512 439.621818a136.168727 136.168727 0 0 1 0 272.290909 136.168727 136.168727 0 0 1 0-272.290909m0-73.309091a209.454545 209.454545 0 1 0 0.023273 418.932364A209.454545 209.454545 0 0 0 512 366.312727zM879.476364 356.770909c-19.316364 0-34.909091 15.592727-34.909091 34.909091s15.592727 34.909091 34.909091 34.909091 34.909091-15.592727 34.909091-34.909091-15.592727-34.909091-34.909091-34.909091z" p-id="1114"></path></svg>